<mxfile host="app.diagrams.net" agent="Mozilla/5.0 (Windows NT 10.0; Win64; x64) AppleWebKit/537.36 (KHTML, like Gecko) Chrome/134.0.0.0 Safari/537.36" version="26.1.1" pages="2">
  <diagram name="Strona-1" id="LQGkgn-zkJMtT5p6tbA2">
    <mxGraphModel dx="712" dy="1341" grid="0" gridSize="10" guides="1" tooltips="1" connect="1" arrows="1" fold="1" page="0" pageScale="1" pageWidth="827" pageHeight="1169" math="0" shadow="0">
      <root>
        <mxCell id="0" />
        <mxCell id="1" parent="0" />
        <object placeholders="1" c4Name="Użytkownik wagi" c4Type="Użytkownik" c4Description="Użytkownik posiadający i korzystający z inteligentnej wagi" label="&lt;font style=&quot;font-size: 16px&quot;&gt;&lt;b&gt;%c4Name%&lt;/b&gt;&lt;/font&gt;&lt;div&gt;[%c4Type%]&lt;/div&gt;&lt;br&gt;&lt;div&gt;&lt;font style=&quot;font-size: 11px&quot;&gt;&lt;font color=&quot;#cccccc&quot;&gt;%c4Description%&lt;/font&gt;&lt;/div&gt;" id="tBnP6Rge4fdjIVwUS1mi-1">
          <mxCell style="html=1;fontSize=11;dashed=0;whiteSpace=wrap;fillColor=#083F75;strokeColor=#06315C;fontColor=#ffffff;shape=mxgraph.c4.person2;align=center;metaEdit=1;points=[[0.5,0,0],[1,0.5,0],[1,0.75,0],[0.75,1,0],[0.5,1,0],[0.25,1,0],[0,0.75,0],[0,0.5,0]];resizable=0;" vertex="1" parent="1">
            <mxGeometry x="103" y="-144" width="200" height="180" as="geometry" />
          </mxCell>
        </object>
        <object placeholders="1" c4Name="System Inteligentnej wagi" c4Type="System" c4Description="Umożliwia użytkownikom pomiar masy ciała, poziomu tkanki tłuszczowej oraz innych parametrów ciała, a także przegląd wyników i historii w powiązanej aplikacji" label="&lt;font style=&quot;font-size: 16px&quot;&gt;&lt;b&gt;%c4Name%&lt;/b&gt;&lt;/font&gt;&lt;div&gt;[%c4Type%]&lt;/div&gt;&lt;br&gt;&lt;div&gt;&lt;font style=&quot;font-size: 11px&quot;&gt;&lt;font color=&quot;#cccccc&quot;&gt;%c4Description%&lt;/font&gt;&lt;/div&gt;" link="data:page/id,blbsgyXQcQbPTUsvh_yU" id="tBnP6Rge4fdjIVwUS1mi-5">
          <mxCell style="rounded=1;whiteSpace=wrap;html=1;labelBackgroundColor=none;fillColor=#1061B0;fontColor=#ffffff;align=center;arcSize=10;strokeColor=#0D5091;metaEdit=1;resizable=0;points=[[0.25,0,0],[0.5,0,0],[0.75,0,0],[1,0.25,0],[1,0.5,0],[1,0.75,0],[0.75,1,0],[0.5,1,0],[0.25,1,0],[0,0.75,0],[0,0.5,0],[0,0.25,0]];" vertex="1" parent="1">
            <mxGeometry x="83" y="170" width="240" height="120" as="geometry" />
          </mxCell>
        </object>
        <object placeholders="1" c4Type="Relationship" c4Description="Korzystając z wagi robi pomiar parametrów ciała" label="&lt;div style=&quot;text-align: left&quot;&gt;&lt;div style=&quot;text-align: center&quot;&gt;&lt;b&gt;%c4Description%&lt;/b&gt;&lt;/div&gt;" id="tBnP6Rge4fdjIVwUS1mi-6">
          <mxCell style="endArrow=blockThin;html=1;fontSize=10;fontColor=#404040;strokeWidth=1;endFill=1;strokeColor=#828282;elbow=vertical;metaEdit=1;endSize=14;startSize=14;jumpStyle=arc;jumpSize=16;rounded=0;edgeStyle=orthogonalEdgeStyle;curved=1;entryX=0.5;entryY=0;entryDx=0;entryDy=0;entryPerimeter=0;" edge="1" parent="1" source="tBnP6Rge4fdjIVwUS1mi-1" target="tBnP6Rge4fdjIVwUS1mi-5">
            <mxGeometry width="240" relative="1" as="geometry">
              <mxPoint x="80" y="200" as="sourcePoint" />
              <mxPoint x="280" y="76" as="targetPoint" />
            </mxGeometry>
          </mxCell>
        </object>
      </root>
    </mxGraphModel>
  </diagram>
  <diagram id="blbsgyXQcQbPTUsvh_yU" name="Strona-2">
    <mxGraphModel dx="1834" dy="1342" grid="0" gridSize="10" guides="1" tooltips="1" connect="1" arrows="1" fold="1" page="0" pageScale="1" pageWidth="827" pageHeight="1169" math="0" shadow="0">
      <root>
        <mxCell id="0" />
        <mxCell id="1" parent="0" />
        <object placeholders="1" c4Name="Użytkownik wagi" c4Type="Użytkownik" c4Description="Użytkownik posiadający i korzystający z inteligentnej wagi" label="&lt;font style=&quot;font-size: 16px&quot;&gt;&lt;b&gt;%c4Name%&lt;/b&gt;&lt;/font&gt;&lt;div&gt;[%c4Type%]&lt;/div&gt;&lt;br&gt;&lt;div&gt;&lt;font style=&quot;font-size: 11px&quot;&gt;&lt;font color=&quot;#cccccc&quot;&gt;%c4Description%&lt;/font&gt;&lt;/div&gt;" id="KquKAEkToBRRvqp3e-BK-1">
          <mxCell style="html=1;fontSize=11;dashed=0;whiteSpace=wrap;fillColor=#083F75;strokeColor=#06315C;fontColor=#ffffff;shape=mxgraph.c4.person2;align=center;metaEdit=1;points=[[0.5,0,0],[1,0.5,0],[1,0.75,0],[0.75,1,0],[0.5,1,0],[0.25,1,0],[0,0.75,0],[0,0.5,0]];resizable=0;" vertex="1" parent="1">
            <mxGeometry x="290" y="-135" width="200" height="180" as="geometry" />
          </mxCell>
        </object>
        <object placeholders="1" c4Name="System Inteligentnej Wagi" c4Type="ContainerScopeBoundary" c4Application="Diagram kontenerowy dla Systemu Inteligentnej Wagi" label="&lt;font style=&quot;font-size: 16px&quot;&gt;&lt;b&gt;&lt;div style=&quot;text-align: left&quot;&gt;%c4Name%&lt;/div&gt;&lt;/b&gt;&lt;/font&gt;&lt;div style=&quot;text-align: left&quot;&gt;[%c4Application%]&lt;/div&gt;" id="KquKAEkToBRRvqp3e-BK-3">
          <mxCell style="rounded=1;fontSize=11;whiteSpace=wrap;html=1;dashed=1;arcSize=20;fillColor=none;strokeColor=#666666;fontColor=#333333;labelBackgroundColor=none;align=left;verticalAlign=bottom;labelBorderColor=none;spacingTop=0;spacing=10;dashPattern=8 4;metaEdit=1;rotatable=0;perimeter=rectanglePerimeter;noLabel=0;labelPadding=0;allowArrows=0;connectable=0;expand=0;recursiveResize=0;editable=1;pointerEvents=0;absoluteArcSize=1;points=[[0.25,0,0],[0.5,0,0],[0.75,0,0],[1,0.25,0],[1,0.5,0],[1,0.75,0],[0.75,1,0],[0.5,1,0],[0.25,1,0],[0,0.75,0],[0,0.5,0],[0,0.25,0]];" vertex="1" parent="1">
            <mxGeometry x="-87" y="170" width="1231" height="419" as="geometry" />
          </mxCell>
        </object>
        <mxCell id="V4KHtJX3c3VKZmcBaZ54-3" style="edgeStyle=none;curved=1;rounded=0;orthogonalLoop=1;jettySize=auto;html=1;fontSize=12;startSize=8;endSize=8;" edge="1" parent="1" source="KquKAEkToBRRvqp3e-BK-6" target="KquKAEkToBRRvqp3e-BK-9">
          <mxGeometry relative="1" as="geometry" />
        </mxCell>
        <mxCell id="V4KHtJX3c3VKZmcBaZ54-4" value="&lt;div&gt;&lt;br&gt;&lt;/div&gt;HTTPS" style="edgeLabel;html=1;align=center;verticalAlign=middle;resizable=0;points=[];fontSize=12;" vertex="1" connectable="0" parent="V4KHtJX3c3VKZmcBaZ54-3">
          <mxGeometry x="0.128" y="1" relative="1" as="geometry">
            <mxPoint x="15" y="-1" as="offset" />
          </mxGeometry>
        </mxCell>
        <object placeholders="1" c4Name="Aplikacja Mobilna" c4Type="Container" c4Technology="React" c4Description="Umożliwia użytkownikom przeglądanie historii pomiarów, analizowanie trendów oraz konfigurację wagi. Synchronizuje dane przez Wi-Fi." label="&lt;font style=&quot;font-size: 16px&quot;&gt;&lt;b&gt;%c4Name%&lt;/b&gt;&lt;/font&gt;&lt;div&gt;[%c4Type%: %c4Technology%]&lt;/div&gt;&lt;br&gt;&lt;div&gt;&lt;font style=&quot;font-size: 11px&quot;&gt;&lt;font color=&quot;#E6E6E6&quot;&gt;%c4Description%&lt;/font&gt;&lt;/div&gt;" id="KquKAEkToBRRvqp3e-BK-6">
          <mxCell style="rounded=1;whiteSpace=wrap;html=1;fontSize=11;labelBackgroundColor=none;fillColor=#23A2D9;fontColor=#ffffff;align=center;arcSize=10;strokeColor=#0E7DAD;metaEdit=1;resizable=0;points=[[0.25,0,0],[0.5,0,0],[0.75,0,0],[1,0.25,0],[1,0.5,0],[1,0.75,0],[0.75,1,0],[0.5,1,0],[0.25,1,0],[0,0.75,0],[0,0.5,0],[0,0.25,0]];" vertex="1" parent="1">
            <mxGeometry x="790" y="217" width="240" height="120" as="geometry" />
          </mxCell>
        </object>
        <mxCell id="xIY2RR0KG79NCkWmjZN6-14" value="" style="edgeStyle=none;curved=1;rounded=0;orthogonalLoop=1;jettySize=auto;html=1;fontSize=12;startSize=8;endSize=8;" edge="1" parent="1" source="KquKAEkToBRRvqp3e-BK-8" target="V4KHtJX3c3VKZmcBaZ54-1">
          <mxGeometry relative="1" as="geometry">
            <mxPoint x="390" y="277" as="targetPoint" />
          </mxGeometry>
        </mxCell>
        <mxCell id="V4KHtJX3c3VKZmcBaZ54-6" value="Wysyła dane&lt;div&gt;&lt;span style=&quot;background-color: light-dark(#ffffff, var(--ge-dark-color, #121212)); color: light-dark(rgb(0, 0, 0), rgb(255, 255, 255));&quot;&gt;do Brokera&lt;/span&gt;&lt;/div&gt;&lt;div&gt;&lt;span style=&quot;background-color: light-dark(#ffffff, var(--ge-dark-color, #121212)); color: light-dark(rgb(0, 0, 0), rgb(255, 255, 255));&quot;&gt;(MQTT)&lt;/span&gt;&lt;/div&gt;" style="edgeLabel;html=1;align=center;verticalAlign=middle;resizable=0;points=[];fontSize=12;" vertex="1" connectable="0" parent="xIY2RR0KG79NCkWmjZN6-14">
          <mxGeometry x="-0.1602" y="-1" relative="1" as="geometry">
            <mxPoint as="offset" />
          </mxGeometry>
        </mxCell>
        <object placeholders="1" c4Name="Inteligentna Waga" c4Type="Container" c4Technology="Python" c4Description="Dokonuje pomiaru masy ciała, poziomu tkanki tłuszczowej i innych parametrów. Łączy się z aplikacją mobilną, aby przesłać dane." label="&lt;font style=&quot;font-size: 16px&quot;&gt;&lt;b&gt;%c4Name%&lt;/b&gt;&lt;/font&gt;&lt;div&gt;[%c4Type%: %c4Technology%]&lt;/div&gt;&lt;br&gt;&lt;div&gt;&lt;font style=&quot;font-size: 11px&quot;&gt;&lt;font color=&quot;#E6E6E6&quot;&gt;%c4Description%&lt;/font&gt;&lt;/div&gt;" id="KquKAEkToBRRvqp3e-BK-8">
          <mxCell style="rounded=1;whiteSpace=wrap;html=1;fontSize=11;labelBackgroundColor=none;fillColor=#23A2D9;fontColor=#ffffff;align=center;arcSize=10;strokeColor=#0E7DAD;metaEdit=1;resizable=0;points=[[0.25,0,0],[0.5,0,0],[0.75,0,0],[1,0.25,0],[1,0.5,0],[1,0.75,0],[0.75,1,0],[0.5,1,0],[0.25,1,0],[0,0.75,0],[0,0.5,0],[0,0.25,0]];" vertex="1" parent="1">
            <mxGeometry x="-14" y="217" width="240" height="120" as="geometry" />
          </mxCell>
        </object>
        <mxCell id="xIY2RR0KG79NCkWmjZN6-11" value="" style="edgeStyle=none;curved=1;rounded=0;orthogonalLoop=1;jettySize=auto;html=1;fontSize=12;startSize=8;endSize=8;" edge="1" parent="1" source="KquKAEkToBRRvqp3e-BK-9" target="xIY2RR0KG79NCkWmjZN6-4">
          <mxGeometry relative="1" as="geometry" />
        </mxCell>
        <mxCell id="xIY2RR0KG79NCkWmjZN6-21" value="Odczytuje i zapisuje&lt;div&gt;dane w bazie danych&lt;/div&gt;&lt;div&gt;(SQL)&lt;/div&gt;" style="edgeLabel;html=1;align=center;verticalAlign=middle;resizable=0;points=[];fontSize=12;" vertex="1" connectable="0" parent="xIY2RR0KG79NCkWmjZN6-11">
          <mxGeometry x="0.3574" y="3" relative="1" as="geometry">
            <mxPoint x="91" as="offset" />
          </mxGeometry>
        </mxCell>
        <mxCell id="V4KHtJX3c3VKZmcBaZ54-2" style="edgeStyle=none;curved=1;rounded=0;orthogonalLoop=1;jettySize=auto;html=1;fontSize=12;startSize=8;endSize=8;" edge="1" parent="1" source="KquKAEkToBRRvqp3e-BK-9" target="V4KHtJX3c3VKZmcBaZ54-1">
          <mxGeometry relative="1" as="geometry" />
        </mxCell>
        <mxCell id="V4KHtJX3c3VKZmcBaZ54-5" value="&lt;div&gt;Subskrybuje Broker&lt;/div&gt;&lt;div&gt;(MQTT)&lt;/div&gt;" style="edgeLabel;html=1;align=center;verticalAlign=middle;resizable=0;points=[];fontSize=12;" vertex="1" connectable="0" parent="V4KHtJX3c3VKZmcBaZ54-2">
          <mxGeometry x="0.3521" y="-2" relative="1" as="geometry">
            <mxPoint x="21" y="10" as="offset" />
          </mxGeometry>
        </mxCell>
        <object placeholders="1" c4Name="API Backend" c4Type="Container" c4Technology="Python" c4Description="Obsługuje logikę biznesową aplikacji, przetwarza dane pomiarowe i zarządza użytkownikami. Komunikuje się z bazą danych i aplikacją mobilną poprzez JSON/HTTPS." label="&lt;font style=&quot;font-size: 16px&quot;&gt;&lt;b&gt;%c4Name%&lt;/b&gt;&lt;/font&gt;&lt;div&gt;[%c4Type%: %c4Technology%]&lt;/div&gt;&lt;br&gt;&lt;div&gt;&lt;font style=&quot;font-size: 11px&quot;&gt;&lt;font color=&quot;#E6E6E6&quot;&gt;%c4Description%&lt;/font&gt;&lt;/div&gt;" id="KquKAEkToBRRvqp3e-BK-9">
          <mxCell style="rounded=1;whiteSpace=wrap;html=1;fontSize=11;labelBackgroundColor=none;fillColor=#23A2D9;fontColor=#ffffff;align=center;arcSize=10;strokeColor=#0E7DAD;metaEdit=1;resizable=0;points=[[0.25,0,0],[0.5,0,0],[0.75,0,0],[1,0.25,0],[1,0.5,0],[1,0.75,0],[0.75,1,0],[0.5,1,0],[0.25,1,0],[0,0.75,0],[0,0.5,0],[0,0.25,0]];" vertex="1" parent="1">
            <mxGeometry x="666" y="420" width="240" height="120" as="geometry" />
          </mxCell>
        </object>
        <object placeholders="1" c4Name=" Baza Danych" c4Type="Container" c4Technology="SQL - Azure CosmoDB" c4Description="Przechowuje dane użytkowników, historię pomiarów oraz dane analityczne." label="&lt;font style=&quot;font-size: 16px&quot;&gt;&lt;b&gt;%c4Name%&lt;/b&gt;&lt;/font&gt;&lt;div&gt;[%c4Type%:&amp;nbsp;%c4Technology%]&lt;/div&gt;&lt;br&gt;&lt;div&gt;&lt;font style=&quot;font-size: 11px&quot;&gt;&lt;font color=&quot;#E6E6E6&quot;&gt;%c4Description%&lt;/font&gt;&lt;/div&gt;" id="xIY2RR0KG79NCkWmjZN6-4">
          <mxCell style="shape=cylinder3;size=15;whiteSpace=wrap;html=1;boundedLbl=1;rounded=0;labelBackgroundColor=none;fillColor=#23A2D9;fontSize=12;fontColor=#ffffff;align=center;strokeColor=#0E7DAD;metaEdit=1;points=[[0.5,0,0],[1,0.25,0],[1,0.5,0],[1,0.75,0],[0.5,1,0],[0,0.75,0],[0,0.5,0],[0,0.25,0]];resizable=0;" vertex="1" parent="1">
            <mxGeometry x="-14" y="412" width="240" height="120" as="geometry" />
          </mxCell>
        </object>
        <mxCell id="xIY2RR0KG79NCkWmjZN6-5" value="" style="endArrow=classic;html=1;rounded=0;fontSize=12;startSize=8;endSize=8;curved=1;entryX=0.454;entryY=0.008;entryDx=0;entryDy=0;entryPerimeter=0;" edge="1" parent="1" source="KquKAEkToBRRvqp3e-BK-1" target="KquKAEkToBRRvqp3e-BK-6">
          <mxGeometry width="50" height="50" relative="1" as="geometry">
            <mxPoint x="172" y="321" as="sourcePoint" />
            <mxPoint x="348" y="133" as="targetPoint" />
          </mxGeometry>
        </mxCell>
        <mxCell id="xIY2RR0KG79NCkWmjZN6-19" value="Sprawdza parametry" style="edgeLabel;html=1;align=center;verticalAlign=middle;resizable=0;points=[];fontSize=12;" vertex="1" connectable="0" parent="xIY2RR0KG79NCkWmjZN6-5">
          <mxGeometry x="0.1547" y="2" relative="1" as="geometry">
            <mxPoint as="offset" />
          </mxGeometry>
        </mxCell>
        <mxCell id="xIY2RR0KG79NCkWmjZN6-24" value="" style="endArrow=classic;html=1;rounded=0;fontSize=12;startSize=8;endSize=8;curved=1;" edge="1" parent="1" source="KquKAEkToBRRvqp3e-BK-1" target="KquKAEkToBRRvqp3e-BK-8">
          <mxGeometry width="50" height="50" relative="1" as="geometry">
            <mxPoint x="136" y="108" as="sourcePoint" />
            <mxPoint x="162" y="107" as="targetPoint" />
          </mxGeometry>
        </mxCell>
        <mxCell id="xIY2RR0KG79NCkWmjZN6-25" value="Wykonuje pomiar parametrów" style="edgeLabel;html=1;align=center;verticalAlign=middle;resizable=0;points=[];fontSize=12;" vertex="1" connectable="0" parent="xIY2RR0KG79NCkWmjZN6-24">
          <mxGeometry x="-0.0562" y="-2" relative="1" as="geometry">
            <mxPoint as="offset" />
          </mxGeometry>
        </mxCell>
        <object placeholders="1" c4Name="Broker MQTTs" c4Type="Broker" c4Technology="Eclipse Mosqutto v2.0, protokół MQTTs" c4Description="Broker MQTT Przesyła dane pomiarowe między wagą, backendem i aplikacją" label="&lt;font style=&quot;font-size: 16px&quot;&gt;&lt;b&gt;%c4Name%&lt;/b&gt;&lt;/font&gt;&lt;div&gt;[%c4Type%: %c4Technology%]&lt;/div&gt;&lt;br&gt;&lt;div&gt;&lt;font style=&quot;font-size: 11px&quot;&gt;&lt;font color=&quot;#E6E6E6&quot;&gt;%c4Description%&lt;/font&gt;&lt;/div&gt;" id="V4KHtJX3c3VKZmcBaZ54-1">
          <mxCell style="rounded=1;whiteSpace=wrap;html=1;fontSize=11;labelBackgroundColor=none;fillColor=#23A2D9;fontColor=#ffffff;align=center;arcSize=10;strokeColor=#0E7DAD;metaEdit=1;resizable=0;points=[[0.25,0,0],[0.5,0,0],[0.75,0,0],[1,0.25,0],[1,0.5,0],[1,0.75,0],[0.75,1,0],[0.5,1,0],[0.25,1,0],[0,0.75,0],[0,0.5,0],[0,0.25,0]];" vertex="1" parent="1">
            <mxGeometry x="394" y="217" width="240" height="120" as="geometry" />
          </mxCell>
        </object>
        <mxCell id="V4KHtJX3c3VKZmcBaZ54-9" value="VM???" style="text;html=1;align=center;verticalAlign=middle;resizable=0;points=[];autosize=1;strokeColor=none;fillColor=none;fontSize=16;" vertex="1" parent="1">
          <mxGeometry x="11" y="211" width="69" height="31" as="geometry" />
        </mxCell>
        <mxCell id="V4KHtJX3c3VKZmcBaZ54-10" value="VM/DOCKER?" style="text;html=1;align=center;verticalAlign=middle;resizable=0;points=[];autosize=1;strokeColor=none;fillColor=none;fontSize=16;" vertex="1" parent="1">
          <mxGeometry x="402" y="214" width="124" height="31" as="geometry" />
        </mxCell>
        <mxCell id="V4KHtJX3c3VKZmcBaZ54-11" value="VM/DOCKER?" style="text;html=1;align=center;verticalAlign=middle;resizable=0;points=[];autosize=1;strokeColor=none;fillColor=none;fontSize=16;" vertex="1" parent="1">
          <mxGeometry x="906" y="452" width="124" height="31" as="geometry" />
        </mxCell>
      </root>
    </mxGraphModel>
  </diagram>
</mxfile>
